<svg xmlns="http://www.w3.org/2000/svg" fill="none" viewBox="0 0 184 40" height="40" width="184">
<path fill="#C0F49B" d="M16.3448 16.2072H16.3309C12.0196 16.2072 8.48719 12.8884 8.1867 8.68286C8.16384 8.37076 8.40554 8.10325 8.71991 8.08218C12.8214 7.80899 16.0844 4.52916 16.3105 0.445187C16.3244 0.199565 16.1333 -0.00633594 15.8851 0.000149133C13.0778 0.0747275 10.4469 0.852937 8.16547 2.16373C3.28415 4.96691 0 10.206 0 16.2072C0 23.6909 4.93521 29.7253 11.8726 31.5825C12.1127 31.6465 12.24 31.8232 12.2425 32.0705L12.2441 32.1199L12.2482 39.0127C12.2482 39.6126 12.7831 40.0731 13.3816 39.9904C17.252 39.457 19.9556 36.3109 20.0936 32.3639C20.1001 32.1742 20.23 32.0113 20.4137 31.9618C23.8244 31.1382 26.7672 29.2527 28.9131 26.6773C28.9131 26.6773 30.6328 24.6807 31.7441 21.6814C32.728 19.0257 30.7528 16.2072 27.9022 16.2072H16.3448ZM22.3987 24.3184C22.2917 24.3159 22.188 24.3046 22.086 24.2859C21.1322 24.1157 20.4096 23.2881 20.4096 22.2926C20.4096 21.2971 21.1322 20.4695 22.086 20.2992C22.2044 20.2774 22.326 20.266 22.451 20.266C23.6456 20.266 24.6001 21.285 24.4825 22.4944C24.3805 23.5418 23.4586 24.3451 22.3987 24.3184Z"></path>
<path fill="#C0F49B" d="M44.664 28V13.168H39.696V11.2H52.056V13.168H47.064V28H44.664ZM51.6373 28V15.904H53.7973L54.0133 18.184C54.2853 17.64 54.6373 17.184 55.0693 16.816C55.5013 16.432 56.0053 16.136 56.5813 15.928C57.1733 15.72 57.8453 15.616 58.5973 15.616V18.16H57.7333C57.2373 18.16 56.7653 18.224 56.3173 18.352C55.8693 18.464 55.4693 18.664 55.1173 18.952C54.7813 19.24 54.5173 19.632 54.3253 20.128C54.1333 20.624 54.0373 21.24 54.0373 21.976V28H51.6373ZM59.5294 28V15.904H61.9294V28H59.5294ZM60.7534 13.624C60.2894 13.624 59.9054 13.48 59.6014 13.192C59.3134 12.904 59.1694 12.536 59.1694 12.088C59.1694 11.656 59.3134 11.304 59.6014 11.032C59.9054 10.744 60.2894 10.6 60.7534 10.6C61.2014 10.6 61.5774 10.744 61.8814 11.032C62.1854 11.304 62.3374 11.656 62.3374 12.088C62.3374 12.536 62.1854 12.904 61.8814 13.192C61.5774 13.48 61.2014 13.624 60.7534 13.624ZM63.9214 28V10.72H66.3214V28H63.9214ZM73.6487 28.288C72.4967 28.288 71.4727 28.024 70.5767 27.496C69.6807 26.968 68.9767 26.232 68.4647 25.288C67.9687 24.344 67.7207 23.248 67.7207 22C67.7207 20.72 67.9687 19.608 68.4647 18.664C68.9767 17.704 69.6807 16.96 70.5767 16.432C71.4727 15.888 72.5127 15.616 73.6967 15.616C74.8807 15.616 75.8967 15.88 76.7447 16.408C77.5927 16.936 78.2487 17.64 78.7127 18.52C79.1767 19.384 79.4087 20.344 79.4087 21.4C79.4087 21.56 79.4007 21.736 79.3847 21.928C79.3847 22.104 79.3767 22.304 79.3607 22.528H69.4727V20.824H77.0087C76.9607 19.816 76.6247 19.032 76.0007 18.472C75.3767 17.896 74.6007 17.608 73.6727 17.608C73.0167 17.608 72.4167 17.76 71.8727 18.064C71.3287 18.352 70.8887 18.784 70.5527 19.36C70.2327 19.92 70.0727 20.632 70.0727 21.496V22.168C70.0727 23.064 70.2327 23.824 70.5527 24.448C70.8887 25.056 71.3287 25.52 71.8727 25.84C72.4167 26.144 73.0087 26.296 73.6487 26.296C74.4167 26.296 75.0487 26.128 75.5447 25.792C76.0407 25.456 76.4087 25 76.6487 24.424H79.0487C78.8407 25.16 78.4887 25.824 77.9927 26.416C77.4967 26.992 76.8807 27.448 76.1447 27.784C75.4247 28.12 74.5927 28.288 73.6487 28.288ZM80.6351 28V15.904H82.7951L82.9631 17.608C83.3471 16.984 83.8591 16.496 84.4991 16.144C85.1391 15.792 85.8591 15.616 86.6591 15.616C87.2671 15.616 87.8191 15.704 88.3151 15.88C88.8111 16.04 89.2511 16.288 89.6351 16.624C90.0191 16.96 90.3311 17.376 90.5711 17.872C91.0031 17.168 91.5791 16.616 92.2991 16.216C93.0351 15.816 93.8111 15.616 94.6271 15.616C95.6031 15.616 96.4431 15.816 97.1471 16.216C97.8511 16.6 98.3871 17.184 98.7551 17.968C99.1231 18.736 99.3071 19.696 99.3071 20.848V28H96.9311V21.088C96.9311 19.968 96.6991 19.12 96.2351 18.544C95.7871 17.968 95.1231 17.68 94.2431 17.68C93.6511 17.68 93.1231 17.832 92.6591 18.136C92.1951 18.44 91.8271 18.88 91.5551 19.456C91.2991 20.032 91.1711 20.736 91.1711 21.568V28H88.7711V21.088C88.7711 19.968 88.5391 19.12 88.0751 18.544C87.6271 17.968 86.9631 17.68 86.0831 17.68C85.5231 17.68 85.0111 17.832 84.5471 18.136C84.0831 18.44 83.7151 18.88 83.4431 19.456C83.1711 20.032 83.0351 20.736 83.0351 21.568V28H80.6351ZM104.977 28.288C103.985 28.288 103.161 28.12 102.505 27.784C101.849 27.448 101.361 27 101.041 26.44C100.721 25.864 100.561 25.248 100.561 24.592C100.561 23.792 100.769 23.112 101.185 22.552C101.601 21.976 102.193 21.536 102.961 21.232C103.729 20.928 104.649 20.776 105.721 20.776H108.865C108.865 20.072 108.761 19.488 108.553 19.024C108.345 18.56 108.033 18.216 107.617 17.992C107.217 17.752 106.705 17.632 106.081 17.632C105.361 17.632 104.745 17.808 104.233 18.16C103.721 18.496 103.401 19 103.273 19.672H100.873C100.969 18.824 101.257 18.104 101.737 17.512C102.233 16.904 102.865 16.44 103.633 16.12C104.401 15.784 105.217 15.616 106.081 15.616C107.217 15.616 108.169 15.816 108.937 16.216C109.705 16.616 110.281 17.184 110.665 17.92C111.065 18.64 111.265 19.504 111.265 20.512V28H109.177L108.985 25.96C108.809 26.28 108.601 26.584 108.361 26.872C108.121 27.16 107.833 27.408 107.497 27.616C107.177 27.824 106.801 27.984 106.369 28.096C105.953 28.224 105.489 28.288 104.977 28.288ZM105.433 26.344C105.945 26.344 106.409 26.24 106.825 26.032C107.241 25.824 107.593 25.544 107.881 25.192C108.185 24.824 108.409 24.416 108.553 23.968C108.713 23.504 108.801 23.032 108.817 22.552V22.48H105.961C105.273 22.48 104.713 22.568 104.281 22.744C103.865 22.904 103.561 23.128 103.369 23.416C103.177 23.704 103.081 24.04 103.081 24.424C103.081 24.824 103.169 25.168 103.345 25.456C103.537 25.728 103.809 25.944 104.161 26.104C104.513 26.264 104.937 26.344 105.433 26.344ZM117.709 30.4V10.72H120.109V30.4H117.709ZM130.307 28L125.747 11.2H128.315L131.723 25.192L135.635 11.2H138.299L142.091 25.24L145.547 11.2H148.115L143.483 28H140.675L136.907 14.632L133.043 28H130.307ZM151.706 28.288C150.714 28.288 149.89 28.12 149.234 27.784C148.578 27.448 148.09 27 147.77 26.44C147.45 25.864 147.29 25.248 147.29 24.592C147.29 23.792 147.498 23.112 147.914 22.552C148.33 21.976 148.922 21.536 149.69 21.232C150.458 20.928 151.378 20.776 152.45 20.776H155.594C155.594 20.072 155.49 19.488 155.282 19.024C155.074 18.56 154.762 18.216 154.346 17.992C153.946 17.752 153.434 17.632 152.81 17.632C152.09 17.632 151.474 17.808 150.962 18.16C150.45 18.496 150.13 19 150.002 19.672H147.602C147.698 18.824 147.986 18.104 148.466 17.512C148.962 16.904 149.594 16.44 150.362 16.12C151.13 15.784 151.946 15.616 152.81 15.616C153.946 15.616 154.898 15.816 155.666 16.216C156.434 16.616 157.01 17.184 157.394 17.92C157.794 18.64 157.994 19.504 157.994 20.512V28H155.906L155.714 25.96C155.538 26.28 155.33 26.584 155.09 26.872C154.85 27.16 154.562 27.408 154.226 27.616C153.906 27.824 153.53 27.984 153.098 28.096C152.682 28.224 152.218 28.288 151.706 28.288ZM152.162 26.344C152.674 26.344 153.138 26.24 153.554 26.032C153.97 25.824 154.322 25.544 154.61 25.192C154.914 24.824 155.138 24.416 155.282 23.968C155.442 23.504 155.53 23.032 155.546 22.552V22.48H152.69C152.002 22.48 151.442 22.568 151.01 22.744C150.594 22.904 150.29 23.128 150.098 23.416C149.906 23.704 149.81 24.04 149.81 24.424C149.81 24.824 149.898 25.168 150.074 25.456C150.266 25.728 150.538 25.944 150.89 26.104C151.242 26.264 151.666 26.344 152.162 26.344ZM163.626 28.288C162.634 28.288 161.81 28.12 161.154 27.784C160.498 27.448 160.01 27 159.69 26.44C159.37 25.864 159.21 25.248 159.21 24.592C159.21 23.792 159.418 23.112 159.834 22.552C160.25 21.976 160.842 21.536 161.61 21.232C162.378 20.928 163.298 20.776 164.37 20.776H167.514C167.514 20.072 167.41 19.488 167.202 19.024C166.994 18.56 166.682 18.216 166.266 17.992C165.866 17.752 165.354 17.632 164.73 17.632C164.01 17.632 163.394 17.808 162.882 18.16C162.37 18.496 162.05 19 161.922 19.672H159.522C159.618 18.824 159.906 18.104 160.386 17.512C160.882 16.904 161.514 16.44 162.282 16.12C163.05 15.784 163.866 15.616 164.73 15.616C165.866 15.616 166.818 15.816 167.586 16.216C168.354 16.616 168.93 17.184 169.314 17.92C169.714 18.64 169.914 19.504 169.914 20.512V28H167.826L167.634 25.96C167.458 26.28 167.25 26.584 167.01 26.872C166.77 27.16 166.482 27.408 166.146 27.616C165.826 27.824 165.45 27.984 165.018 28.096C164.602 28.224 164.138 28.288 163.626 28.288ZM164.082 26.344C164.594 26.344 165.058 26.24 165.474 26.032C165.89 25.824 166.242 25.544 166.53 25.192C166.834 24.824 167.058 24.416 167.202 23.968C167.362 23.504 167.45 23.032 167.466 22.552V22.48H164.61C163.922 22.48 163.362 22.568 162.93 22.744C162.514 22.904 162.21 23.128 162.018 23.416C161.826 23.704 161.73 24.04 161.73 24.424C161.73 24.824 161.818 25.168 161.994 25.456C162.186 25.728 162.458 25.944 162.81 26.104C163.162 26.264 163.586 26.344 164.082 26.344ZM177.153 28.288C175.921 28.288 174.841 28.072 173.913 27.64C172.985 27.192 172.265 26.568 171.753 25.768C171.241 24.968 170.985 24.032 170.985 22.96H173.505C173.521 23.568 173.665 24.128 173.937 24.64C174.225 25.136 174.633 25.536 175.161 25.84C175.705 26.128 176.369 26.272 177.153 26.272C177.825 26.272 178.401 26.16 178.881 25.936C179.377 25.712 179.753 25.408 180.009 25.024C180.265 24.624 180.393 24.168 180.393 23.656C180.393 23.064 180.257 22.576 179.985 22.192C179.713 21.808 179.345 21.496 178.881 21.256C178.433 21 177.905 20.776 177.297 20.584C176.705 20.392 176.081 20.184 175.425 19.96C174.097 19.528 173.105 18.968 172.449 18.28C171.809 17.592 171.489 16.696 171.489 15.592C171.489 14.648 171.713 13.832 172.161 13.144C172.609 12.44 173.233 11.896 174.033 11.512C174.849 11.112 175.809 10.912 176.913 10.912C178.001 10.912 178.953 11.112 179.769 11.512C180.585 11.912 181.225 12.464 181.689 13.168C182.153 13.872 182.385 14.696 182.385 15.64H179.841C179.841 15.208 179.729 14.784 179.505 14.368C179.281 13.952 178.945 13.616 178.497 13.36C178.049 13.088 177.497 12.952 176.841 12.952C176.297 12.936 175.809 13.024 175.377 13.216C174.945 13.408 174.609 13.688 174.369 14.056C174.129 14.424 174.009 14.864 174.009 15.376C174.009 15.888 174.113 16.304 174.321 16.624C174.545 16.928 174.865 17.192 175.281 17.416C175.697 17.64 176.177 17.848 176.721 18.04C177.281 18.216 177.897 18.416 178.569 18.64C179.401 18.912 180.137 19.248 180.777 19.648C181.433 20.032 181.945 20.536 182.313 21.16C182.697 21.768 182.889 22.552 182.889 23.512C182.889 24.344 182.673 25.12 182.241 25.84C181.809 26.56 181.169 27.152 180.321 27.616C179.473 28.064 178.417 28.288 177.153 28.288Z"></path>
</svg>
